<svg xmlns="http://www.w3.org/2000/svg" width="2114" height="657" viewBox="0 0 2114 657" version="1.1"><path d="M 1368.500 115.654 C 1349.401 118.678, 1336.027 127.306, 1329.795 140.624 C 1322.118 157.030, 1326.619 174.834, 1341.148 185.530 C 1348.969 191.287, 1359.386 195.445, 1377.894 200.195 C 1401.062 206.142, 1406.333 209.550, 1406.333 218.581 C 1406.333 227.230, 1399.270 232.441, 1387.500 232.475 C 1374.876 232.511, 1366.512 226.116, 1363.896 214.426 C 1363.051 210.652, 1362.197 208.996, 1361.091 208.988 C 1360.216 208.981, 1350.838 209.506, 1340.250 210.154 L 1321 211.332 1321 213.956 C 1321 222.785, 1327.684 237.670, 1335.231 245.650 C 1345.807 256.834, 1358.416 260.514, 1386 260.471 C 1406.514 260.438, 1412.245 259.418, 1423.863 253.730 C 1449.458 241.198, 1457.918 206.584, 1440.202 186.880 C 1430.994 176.638, 1421.470 172.280, 1392.252 164.938 C 1373.463 160.216, 1370.943 159.277, 1368.282 156 C 1365.472 152.541, 1367.461 146.365, 1372.335 143.415 C 1376.438 140.932, 1388.033 140.853, 1392.631 143.277 C 1397.099 145.633, 1400.880 150.521, 1402.278 155.751 L 1403.485 160.263 1413.743 159.632 C 1419.384 159.284, 1428.753 158.707, 1434.562 158.349 L 1445.125 157.697 1444.442 153.654 C 1441.255 134.792, 1430.306 122.793, 1411.446 117.494 C 1405.546 115.836, 1375.485 114.549, 1368.500 115.654 M 1003.978 181.750 C 990.627 217.363, 978.649 249.313, 977.360 252.750 L 975.017 259 997.540 259 C 1014.672 259, 1020.162 258.701, 1020.475 257.750 C 1020.702 257.063, 1022.285 251.880, 1023.992 246.233 L 1027.097 235.965 1051.773 236.233 L 1076.450 236.500 1079.903 247.750 L 1083.356 259 1106.555 259 L 1129.753 259 1103.128 188 L 1076.504 117 1052.378 117 L 1028.253 117 1003.978 181.750 M 1265.500 126.872 L 1246.500 136.709 1246.214 146.355 L 1245.928 156 1238.464 156 L 1231 156 1231 170.500 L 1231 185 1238.500 185 L 1246 185 1246 209.333 C 1246 223.866, 1246.469 236.003, 1247.165 239.467 C 1248.867 247.943, 1253.220 253.860, 1260.386 257.441 C 1265.606 260.049, 1267.552 260.431, 1277.578 260.814 C 1287.382 261.190, 1301.682 260.016, 1307.252 258.379 C 1308.443 258.029, 1308.855 257.166, 1308.537 255.682 C 1308.281 254.482, 1307.555 248.509, 1306.924 242.410 L 1305.776 231.319 1299.705 232.722 C 1293.163 234.233, 1290.043 233.900, 1287.570 231.427 C 1286.237 230.094, 1286 226.476, 1286 207.429 L 1286 185 1296.500 185 L 1307 185 1307 170.500 L 1307 156 1296.500 156 L 1286 156 1286 136.500 C 1286 125.775, 1285.662 117.008, 1285.250 117.017 C 1284.838 117.026, 1275.950 121.461, 1265.500 126.872 M 1496.500 126.872 L 1477.500 136.709 1477.214 146.355 L 1476.928 156 1469.464 156 L 1462 156 1462 170.500 L 1462 185 1469.500 185 L 1477 185 1477 209.333 C 1477 223.866, 1477.469 236.003, 1478.165 239.467 C 1479.867 247.943, 1484.220 253.860, 1491.386 257.441 C 1496.606 260.049, 1498.552 260.431, 1508.578 260.814 C 1518.382 261.190, 1532.682 260.016, 1538.252 258.379 C 1539.443 258.029, 1539.855 257.166, 1539.537 255.682 C 1539.281 254.482, 1538.555 248.509, 1537.924 242.410 L 1536.776 231.319 1530.705 232.722 C 1524.163 234.233, 1521.043 233.900, 1518.570 231.427 C 1517.237 230.094, 1517 226.476, 1517 207.429 L 1517 185 1527.500 185 L 1538 185 1538 170.500 L 1538 156 1527.500 156 L 1517 156 1517 136.500 C 1517 125.775, 1516.662 117.008, 1516.250 117.017 C 1515.838 117.026, 1506.950 121.461, 1496.500 126.872 M 1191.907 156.326 C 1187.938 158.421, 1184.871 161.640, 1179.802 169.026 C 1178.138 171.452, 1178.104 171.351, 1178.052 163.750 L 1178 156 1159.500 156 L 1141 156 1141 207.500 L 1141 259 1161 259 L 1181 259 1181.020 237.250 C 1181.048 205.959, 1183.019 194.824, 1189.543 189.096 C 1194.007 185.177, 1198.644 184.350, 1204.662 186.400 C 1207.262 187.286, 1209.706 187.671, 1210.093 187.256 C 1210.480 186.840, 1213.365 180.454, 1216.503 173.064 C 1222.996 157.777, 1223.081 158.289, 1213.586 155.470 C 1205.960 153.205, 1197.162 153.553, 1191.907 156.326 M 1587.326 155.482 C 1569.952 158.634, 1558.988 167.875, 1555.621 182.203 C 1555.045 184.652, 1555.292 184.958, 1558.243 185.451 C 1562.119 186.099, 1589.251 189, 1591.436 189 C 1592.274 189, 1593.846 187.262, 1594.930 185.138 C 1596.124 182.796, 1598.237 180.641, 1600.294 179.665 C 1605.103 177.383, 1613.715 176.574, 1618.753 177.932 C 1623.295 179.157, 1625.394 181.531, 1626.459 186.649 L 1627.114 189.798 1619.307 192.384 C 1615.013 193.806, 1603.850 196.597, 1594.500 198.584 C 1575.315 202.663, 1570.262 204.167, 1564.406 207.542 C 1550.863 215.347, 1547.717 236.017, 1558.082 249.104 C 1564.308 256.965, 1574.745 260.968, 1589.066 260.988 C 1604.407 261.009, 1614.059 258.211, 1623.676 250.953 L 1628.851 247.047 1629.546 250.274 C 1629.928 252.048, 1630.873 254.738, 1631.646 256.250 L 1633.051 259 1651.526 259 C 1661.687 259, 1670 258.872, 1670 258.715 C 1670 258.559, 1669.100 255.870, 1668 252.740 C 1666.183 247.571, 1665.998 244.460, 1665.983 218.775 C 1665.970 198.357, 1665.575 188.657, 1664.560 183.869 C 1660.789 166.080, 1651.334 157.822, 1631.594 155.076 C 1621.244 153.637, 1596.233 153.866, 1587.326 155.482 M 1746.727 155.953 C 1740.717 157.873, 1736.111 160.832, 1729.750 166.855 L 1726 170.406 1726 163.203 L 1726 156 1707.500 156 L 1689 156 1689 207.500 L 1689 259 1708.947 259 L 1728.895 259 1729.197 227.750 C 1729.480 198.605, 1729.635 196.271, 1731.500 193.105 C 1734.637 187.778, 1738.398 185.500, 1744.054 185.500 C 1748.263 185.500, 1749.427 185.965, 1752.231 188.768 L 1755.500 192.036 1755.788 225.518 L 1756.077 259 1775.985 259 L 1795.893 259 1796.197 228.250 C 1796.477 199.824, 1796.651 197.203, 1798.500 193.565 C 1801.366 187.924, 1805.126 185.500, 1811.008 185.500 C 1815.025 185.500, 1816.402 186.011, 1818.941 188.443 C 1820.630 190.062, 1822.457 192.987, 1823.001 194.943 C 1823.551 196.923, 1823.991 211.912, 1823.994 228.750 L 1824 259 1844 259 L 1864 259 1863.969 225.750 C 1863.935 188.673, 1863.238 180.509, 1859.374 171.900 C 1854.238 160.454, 1845.120 154.885, 1830.394 154.198 C 1815.996 153.527, 1807.657 156.629, 1796.963 166.631 L 1792.323 170.972 1790.931 168.372 C 1788.441 163.718, 1780.114 157.111, 1774.721 155.510 C 1767.686 153.420, 1753.971 153.637, 1746.727 155.953 M 1943.247 156.038 C 1938.420 157.610, 1935.511 159.461, 1930.497 164.152 L 1924 170.229 1924 163.115 L 1924 156 1905.500 156 L 1887 156 1887 227 L 1887 298 1907 298 L 1927 298 1927 273.949 L 1927 249.898 1930.292 252.409 C 1932.103 253.790, 1936.265 256.176, 1939.542 257.710 C 1944.948 260.241, 1946.520 260.497, 1956.500 260.472 C 1970.115 260.436, 1976.333 258.290, 1984.533 250.796 C 1995.173 241.072, 1998.989 231.427, 1999.737 212.367 C 2000.137 202.187, 1999.872 197.521, 1998.557 191.614 C 1995.036 175.784, 1985.642 162.492, 1974.270 157.246 C 1966.331 153.583, 1952.444 153.043, 1943.247 156.038 M 1044.198 179.824 C 1040.239 192.930, 1037 203.956, 1037 204.327 C 1037 204.697, 1043.780 205, 1052.067 205 C 1065.943 205, 1067.095 204.862, 1066.629 203.250 C 1062.462 188.827, 1052.608 157.317, 1052.086 156.748 C 1051.706 156.334, 1048.156 166.718, 1044.198 179.824 M 1936.962 185.250 C 1933.835 186.827, 1931.752 188.846, 1930 192 C 1927.758 196.036, 1927.500 197.633, 1927.500 207.500 C 1927.500 217.381, 1927.754 218.952, 1930 222.946 C 1935.357 232.473, 1947.273 234.660, 1954.492 227.441 C 1958.777 223.157, 1960.222 217.948, 1960.189 206.913 C 1960.152 194.555, 1956.767 187.560, 1949.282 184.371 C 1944.795 182.459, 1942.118 182.650, 1936.962 185.250 M 1619.500 212.480 C 1617.300 213.208, 1611.491 215.009, 1606.591 216.483 C 1595.671 219.769, 1592 222.864, 1592 228.787 C 1592 239.227, 1607.459 242.245, 1618.812 234.021 C 1623.665 230.506, 1625.719 226.195, 1626.590 217.701 C 1627.367 210.110, 1627.151 209.951, 1619.500 212.480" stroke="none" fill="#050505" fill-rule="evenodd"/><path d="M 37 2.276 C 27.900 5.390, 21.700 9.276, 15.039 16.041 C 8.656 22.523, 2.853 33.241, 1.091 41.799 C 0.331 45.491, -0 93.425, 0 199.839 C 0 367.714, -0.371 357.378, 6.124 370.245 C 10.092 378.106, 20.446 388.475, 28.603 392.757 C 31.960 394.519, 37.661 396.646, 41.272 397.483 C 47.132 398.842, 156 398.979, 1054.669 398.753 L 2061.500 398.500 2067.202 396.321 C 2075.809 393.030, 2081.857 389.143, 2088.134 382.866 C 2095.126 375.874, 2101.508 363.462, 2102.976 354 C 2103.621 349.844, 2103.981 293.769, 2103.975 198.500 C 2103.967 70.978, 2103.752 48.491, 2102.489 42.500 C 2098.318 22.723, 2083.129 6.579, 2063.869 1.453 C 2059.232 0.219, 1921.174 0.026, 1051 0.038 L 43.500 0.052 37 2.276 M 41 12.874 C 26.077 17.672, 14.978 30.193, 12.044 45.540 C 11.214 49.880, 10.985 92.679, 11.202 203 L 11.500 354.500 13.857 360.344 C 18.336 371.449, 28.174 380.952, 39.701 385.309 L 45.500 387.500 1048.500 387.754 C 1720.022 387.924, 2053.305 387.674, 2056.963 386.998 C 2070.605 384.478, 2082.017 375.806, 2088.190 363.266 L 2091.500 356.542 2091.500 199.469 L 2091.500 42.396 2087.774 34.858 C 2083.219 25.641, 2076.567 19.111, 2067.223 14.685 L 2060.500 11.500 1053.500 11.302 C 92.846 11.114, 46.247 11.186, 41 12.874 M 966.105 48.583 C 953.792 51.893, 941.039 62.269, 935.682 73.333 C 929.941 85.189, 930.036 83.079, 930.025 199 C 930.018 268.744, 930.378 307.737, 931.067 311.981 C 933.965 329.845, 948.294 345.827, 965.721 350.631 C 972.301 352.445, 987.783 352.500, 1494 352.500 C 1997.370 352.500, 2015.709 352.436, 2021.500 350.662 C 2030.618 347.868, 2036.373 344.323, 2043.011 337.410 C 2049.658 330.488, 2054.351 321.693, 2055.979 313.109 C 2056.637 309.642, 2056.979 268.897, 2056.942 198.614 C 2056.890 98.806, 2056.738 88.939, 2055.167 82.919 C 2050.822 66.277, 2037.294 52.916, 2020.307 48.492 C 2015.264 47.178, 1952.254 47.008, 1493.040 47.066 C 1040.584 47.123, 970.785 47.324, 966.105 48.583 M 1368.500 115.654 C 1349.401 118.678, 1336.027 127.306, 1329.795 140.624 C 1322.118 157.030, 1326.619 174.834, 1341.148 185.530 C 1348.969 191.287, 1359.386 195.445, 1377.894 200.195 C 1401.062 206.142, 1406.333 209.550, 1406.333 218.581 C 1406.333 227.230, 1399.270 232.441, 1387.500 232.475 C 1374.876 232.511, 1366.512 226.116, 1363.896 214.426 C 1363.051 210.652, 1362.197 208.996, 1361.091 208.988 C 1360.216 208.981, 1350.838 209.506, 1340.250 210.154 L 1321 211.332 1321 213.956 C 1321 222.785, 1327.684 237.670, 1335.231 245.650 C 1345.807 256.834, 1358.416 260.514, 1386 260.471 C 1406.514 260.438, 1412.245 259.418, 1423.863 253.730 C 1449.458 241.198, 1457.918 206.584, 1440.202 186.880 C 1430.994 176.638, 1421.470 172.280, 1392.252 164.938 C 1373.463 160.216, 1370.943 159.277, 1368.282 156 C 1365.472 152.541, 1367.461 146.365, 1372.335 143.415 C 1376.438 140.932, 1388.033 140.853, 1392.631 143.277 C 1397.099 145.633, 1400.880 150.521, 1402.278 155.751 L 1403.485 160.263 1413.743 159.632 C 1419.384 159.284, 1428.753 158.707, 1434.562 158.349 L 1445.125 157.697 1444.442 153.654 C 1441.255 134.792, 1430.306 122.793, 1411.446 117.494 C 1405.546 115.836, 1375.485 114.549, 1368.500 115.654 M 1003.978 181.750 C 990.627 217.363, 978.649 249.313, 977.360 252.750 L 975.017 259 997.540 259 C 1014.672 259, 1020.162 258.701, 1020.475 257.750 C 1020.702 257.063, 1022.285 251.880, 1023.992 246.233 L 1027.097 235.965 1051.773 236.233 L 1076.450 236.500 1079.903 247.750 L 1083.356 259 1106.555 259 L 1129.753 259 1103.128 188 L 1076.504 117 1052.378 117 L 1028.253 117 1003.978 181.750 M 1265.500 126.872 L 1246.500 136.709 1246.214 146.355 L 1245.928 156 1238.464 156 L 1231 156 1231 170.500 L 1231 185 1238.500 185 L 1246 185 1246 209.333 C 1246 223.866, 1246.469 236.003, 1247.165 239.467 C 1248.867 247.943, 1253.220 253.860, 1260.386 257.441 C 1265.606 260.049, 1267.552 260.431, 1277.578 260.814 C 1287.382 261.190, 1301.682 260.016, 1307.252 258.379 C 1308.443 258.029, 1308.855 257.166, 1308.537 255.682 C 1308.281 254.482, 1307.555 248.509, 1306.924 242.410 L 1305.776 231.319 1299.705 232.722 C 1293.163 234.233, 1290.043 233.900, 1287.570 231.427 C 1286.237 230.094, 1286 226.476, 1286 207.429 L 1286 185 1296.500 185 L 1307 185 1307 170.500 L 1307 156 1296.500 156 L 1286 156 1286 136.500 C 1286 125.775, 1285.662 117.008, 1285.250 117.017 C 1284.838 117.026, 1275.950 121.461, 1265.500 126.872 M 1496.500 126.872 L 1477.500 136.709 1477.214 146.355 L 1476.928 156 1469.464 156 L 1462 156 1462 170.500 L 1462 185 1469.500 185 L 1477 185 1477 209.333 C 1477 223.866, 1477.469 236.003, 1478.165 239.467 C 1479.867 247.943, 1484.220 253.860, 1491.386 257.441 C 1496.606 260.049, 1498.552 260.431, 1508.578 260.814 C 1518.382 261.190, 1532.682 260.016, 1538.252 258.379 C 1539.443 258.029, 1539.855 257.166, 1539.537 255.682 C 1539.281 254.482, 1538.555 248.509, 1537.924 242.410 L 1536.776 231.319 1530.705 232.722 C 1524.163 234.233, 1521.043 233.900, 1518.570 231.427 C 1517.237 230.094, 1517 226.476, 1517 207.429 L 1517 185 1527.500 185 L 1538 185 1538 170.500 L 1538 156 1527.500 156 L 1517 156 1517 136.500 C 1517 125.775, 1516.662 117.008, 1516.250 117.017 C 1515.838 117.026, 1506.950 121.461, 1496.500 126.872 M 1191.907 156.326 C 1187.938 158.421, 1184.871 161.640, 1179.802 169.026 C 1178.138 171.452, 1178.104 171.351, 1178.052 163.750 L 1178 156 1159.500 156 L 1141 156 1141 207.500 L 1141 259 1161 259 L 1181 259 1181.020 237.250 C 1181.048 205.959, 1183.019 194.824, 1189.543 189.096 C 1194.007 185.177, 1198.644 184.350, 1204.662 186.400 C 1207.262 187.286, 1209.706 187.671, 1210.093 187.256 C 1210.480 186.840, 1213.365 180.454, 1216.503 173.064 C 1222.996 157.777, 1223.081 158.289, 1213.586 155.470 C 1205.960 153.205, 1197.162 153.553, 1191.907 156.326 M 1587.326 155.482 C 1569.952 158.634, 1558.988 167.875, 1555.621 182.203 C 1555.045 184.652, 1555.292 184.958, 1558.243 185.451 C 1562.119 186.099, 1589.251 189, 1591.436 189 C 1592.274 189, 1593.846 187.262, 1594.930 185.138 C 1596.124 182.796, 1598.237 180.641, 1600.294 179.665 C 1605.103 177.383, 1613.715 176.574, 1618.753 177.932 C 1623.295 179.157, 1625.394 181.531, 1626.459 186.649 L 1627.114 189.798 1619.307 192.384 C 1615.013 193.806, 1603.850 196.597, 1594.500 198.584 C 1575.315 202.663, 1570.262 204.167, 1564.406 207.542 C 1550.863 215.347, 1547.717 236.017, 1558.082 249.104 C 1564.308 256.965, 1574.745 260.968, 1589.066 260.988 C 1604.407 261.009, 1614.059 258.211, 1623.676 250.953 L 1628.851 247.047 1629.546 250.274 C 1629.928 252.048, 1630.873 254.738, 1631.646 256.250 L 1633.051 259 1651.526 259 C 1661.687 259, 1670 258.872, 1670 258.715 C 1670 258.559, 1669.100 255.870, 1668 252.740 C 1666.183 247.571, 1665.998 244.460, 1665.983 218.775 C 1665.970 198.357, 1665.575 188.657, 1664.560 183.869 C 1660.789 166.080, 1651.334 157.822, 1631.594 155.076 C 1621.244 153.637, 1596.233 153.866, 1587.326 155.482 M 1746.727 155.953 C 1740.717 157.873, 1736.111 160.832, 1729.750 166.855 L 1726 170.406 1726 163.203 L 1726 156 1707.500 156 L 1689 156 1689 207.500 L 1689 259 1708.947 259 L 1728.895 259 1729.197 227.750 C 1729.480 198.605, 1729.635 196.271, 1731.500 193.105 C 1734.637 187.778, 1738.398 185.500, 1744.054 185.500 C 1748.263 185.500, 1749.427 185.965, 1752.231 188.768 L 1755.500 192.036 1755.788 225.518 L 1756.077 259 1775.985 259 L 1795.893 259 1796.197 228.250 C 1796.477 199.824, 1796.651 197.203, 1798.500 193.565 C 1801.366 187.924, 1805.126 185.500, 1811.008 185.500 C 1815.025 185.500, 1816.402 186.011, 1818.941 188.443 C 1820.630 190.062, 1822.457 192.987, 1823.001 194.943 C 1823.551 196.923, 1823.991 211.912, 1823.994 228.750 L 1824 259 1844 259 L 1864 259 1863.969 225.750 C 1863.935 188.673, 1863.238 180.509, 1859.374 171.900 C 1854.238 160.454, 1845.120 154.885, 1830.394 154.198 C 1815.996 153.527, 1807.657 156.629, 1796.963 166.631 L 1792.323 170.972 1790.931 168.372 C 1788.441 163.718, 1780.114 157.111, 1774.721 155.510 C 1767.686 153.420, 1753.971 153.637, 1746.727 155.953 M 1943.247 156.038 C 1938.420 157.610, 1935.511 159.461, 1930.497 164.152 L 1924 170.229 1924 163.115 L 1924 156 1905.500 156 L 1887 156 1887 227 L 1887 298 1907 298 L 1927 298 1927 273.949 L 1927 249.898 1930.292 252.409 C 1932.103 253.790, 1936.265 256.176, 1939.542 257.710 C 1944.948 260.241, 1946.520 260.497, 1956.500 260.472 C 1970.115 260.436, 1976.333 258.290, 1984.533 250.796 C 1995.173 241.072, 1998.989 231.427, 1999.737 212.367 C 2000.137 202.187, 1999.872 197.521, 1998.557 191.614 C 1995.036 175.784, 1985.642 162.492, 1974.270 157.246 C 1966.331 153.583, 1952.444 153.043, 1943.247 156.038 M 1044.198 179.824 C 1040.239 192.930, 1037 203.956, 1037 204.327 C 1037 204.697, 1043.780 205, 1052.067 205 C 1065.943 205, 1067.095 204.862, 1066.629 203.250 C 1062.462 188.827, 1052.608 157.317, 1052.086 156.748 C 1051.706 156.334, 1048.156 166.718, 1044.198 179.824 M 1936.962 185.250 C 1933.835 186.827, 1931.752 188.846, 1930 192 C 1927.758 196.036, 1927.500 197.633, 1927.500 207.500 C 1927.500 217.381, 1927.754 218.952, 1930 222.946 C 1935.357 232.473, 1947.273 234.660, 1954.492 227.441 C 1958.777 223.157, 1960.222 217.948, 1960.189 206.913 C 1960.152 194.555, 1956.767 187.560, 1949.282 184.371 C 1944.795 182.459, 1942.118 182.650, 1936.962 185.250 M 1619.500 212.480 C 1617.300 213.208, 1611.491 215.009, 1606.591 216.483 C 1595.671 219.769, 1592 222.864, 1592 228.787 C 1592 239.227, 1607.459 242.245, 1618.812 234.021 C 1623.665 230.506, 1625.719 226.195, 1626.590 217.701 C 1627.367 210.110, 1627.151 209.951, 1619.500 212.480 M 55.218 340.750 L 55.500 352.500 166.250 352.754 L 277 353.009 277 341.004 L 277 329 165.968 329 L 54.937 329 55.218 340.750" stroke="none" fill="#fbfbfb" fill-rule="evenodd"/></svg>