<?xml version="1.0" standalone="no"?>
<!DOCTYPE svg PUBLIC "-//W3C//DTD SVG 20010904//EN"
 "http://www.w3.org/TR/2001/REC-SVG-20010904/DTD/svg10.dtd">
<svg version="1.0" xmlns="http://www.w3.org/2000/svg"
 width="2875.000000pt" height="816.000000pt" viewBox="0 0 2875.000000 816.000000"
 preserveAspectRatio="xMidYMid meet">

<g transform="translate(0.000000,816.000000) scale(0.100000,-0.100000)"
fill="#000000" stroke="none">
<path d="M1000 8149 c-429 -50 -796 -350 -934 -763 -59 -177 -56 11 -56 -3277
0 -2733 2 -3024 16 -3110 41 -240 152 -447 331 -620 155 -150 333 -244 563
-296 71 -16 874 -18 13365 -21 9285 -2 13326 0 13409 8 137 12 242 36 347 81
322 136 562 412 657 756 l27 98 0 3105 0 3105 -27 100 c-37 137 -129 317 -219
428 -157 194 -378 330 -634 391 l-90 21 -13340 1 c-7504 1 -13373 -2 -13415
-7z m26796 -349 c252 -65 460 -249 550 -486 57 -152 54 38 54 -3204 0 -2529
-2 -3000 -14 -3062 -60 -313 -290 -554 -599 -628 -81 -20 -179 -20 -13417 -20
l-13335 0 -85 20 c-228 55 -421 210 -525 425 -88 180 -80 -158 -80 3260 0
2873 1 3034 18 3106 67 284 292 514 577 588 74 20 203 20 13426 20 l13351 1
79 -20z"/>
<path d="M16175 7135 c-370 -68 -660 -339 -763 -711 l-27 -99 0 -2220 0 -2220
23 -89 c27 -107 95 -254 156 -340 51 -71 170 -188 238 -235 68 -45 201 -108
281 -131 38 -10 112 -24 165 -30 69 -8 1580 -10 5262 -8 l5165 3 80 22 c185
50 338 137 463 264 126 127 206 269 255 453 l22 81 0 2225 0 2225 -23 90 c-13
52 -46 137 -77 200 -97 196 -235 333 -430 430 -60 31 -146 65 -190 78 l-80 22
-5225 2 c-4242 1 -5238 -1 -5295 -12z m1145 -2975 l0 -1340 -375 0 -375 0 0
1340 0 1340 375 0 375 0 0 -1340z m1250 1085 l0 -255 -375 0 -375 0 0 255 0
255 375 0 375 0 0 -255z m1575 -485 l205 0 0 -275 0 -275 -206 0 -206 0 4
-392 c3 -369 4 -395 23 -433 29 -59 72 -78 160 -71 39 3 100 14 136 24 l66 19
27 -255 c22 -199 25 -256 15 -262 -6 -5 -75 -18 -153 -31 -179 -30 -506 -33
-623 -7 -201 46 -320 167 -369 378 -15 64 -18 144 -21 553 l-4 477 -140 0
-139 0 0 275 0 275 140 0 140 0 2 181 3 181 365 187 365 188 3 -368 2 -369
205 0z m3745 249 l0 -491 63 55 c175 153 315 212 534 224 364 20 595 -135 685
-462 22 -79 22 -93 26 -797 l3 -718 -375 0 -375 0 -3 603 c-3 662 -3 654 -66
720 -50 53 -99 72 -187 72 -67 0 -88 -5 -131 -27 -94 -49 -143 -133 -163 -282
-7 -47 -11 -276 -11 -582 l0 -504 -375 0 -375 0 0 1340 0 1340 375 0 375 0 0
-491z m2530 236 l0 -255 -375 0 -375 0 0 255 0 255 375 0 375 0 0 -255z
m-4345 -468 c323 -60 518 -185 657 -420 42 -72 95 -203 85 -213 -4 -4 -670
-104 -694 -104 -2 0 -3 6 -3 13 0 28 -50 116 -85 152 -21 21 -63 49 -94 63
-49 23 -69 26 -161 26 -130 1 -194 -22 -275 -96 -99 -90 -145 -224 -145 -423
0 -187 46 -315 144 -401 75 -66 140 -88 256 -89 105 0 163 16 237 67 51 34
115 121 139 188 10 28 20 50 23 50 32 -1 694 -80 698 -84 10 -10 -30 -121 -75
-209 -135 -263 -348 -423 -652 -488 -92 -20 -134 -23 -340 -23 -387 -1 -587
46 -794 187 -117 79 -240 226 -301 359 -59 128 -69 194 -69 443 -1 187 2 243
17 299 57 226 187 410 382 545 128 89 257 137 432 160 43 6 92 13 108 15 66 9
433 -3 510 -17z m-3505 -987 l0 -970 -375 0 -375 0 0 970 0 970 375 0 375 0 0
-970z m7850 0 l0 -970 -375 0 -375 0 0 970 0 970 375 0 375 0 0 -970z"/>
<path d="M1230 1285 l0 -295 3200 0 3200 0 0 295 0 295 -3200 0 -3200 0 0
-295z"/>
</g>
</svg>
