<?xml version="1.0" standalone="no"?>
<!DOCTYPE svg PUBLIC "-//W3C//DTD SVG 20010904//EN"
 "http://www.w3.org/TR/2001/REC-SVG-20010904/DTD/svg10.dtd">
<svg version="1.0" xmlns="http://www.w3.org/2000/svg"
 width="4229.000000pt" height="802.000000pt" viewBox="0 0 4229.000000 802.000000"
 preserveAspectRatio="xMidYMid meet">

<g transform="translate(0.000000,802.000000) scale(0.100000,-0.100000)"
fill="#000000" stroke="none">
<path d="M884 7979 c-190 -32 -397 -137 -546 -277 -167 -158 -287 -387 -318
-607 -8 -58 -10 -927 -8 -3135 l3 -3055 27 -92 c120 -405 439 -699 835 -768
76 -13 2371 -15 20263 -15 18047 0 20187 2 20265 15 399 70 720 370 838 783
l22 77 3 3055 c2 2208 0 3077 -8 3135 -15 102 -60 239 -111 335 -140 259 -360
436 -654 527 l-90 28 -20235 1 c-11165 1 -20258 -2 -20286 -7z m40426 -200
c343 -42 616 -273 722 -609 l23 -75 0 -3080 c0 -2920 -1 -3083 -18 -3145 -76
-279 -302 -513 -579 -598 -37 -12 -113 -26 -169 -32 -142 -14 -40156 -14
-40298 0 -215 22 -390 108 -537 261 -110 117 -178 241 -214 392 -20 84 -20
114 -18 3143 3 2901 4 3062 21 3119 50 169 156 332 282 434 124 101 283 171
431 190 104 13 40248 14 40354 0z"/>
<path d="M20720 7031 c-180 -39 -340 -122 -468 -245 -143 -137 -222 -271 -279
-476 -17 -62 -18 -175 -18 -2305 l0 -2240 22 -85 c31 -116 108 -270 180 -360
138 -174 313 -285 540 -343 l88 -22 9745 0 9745 0 100 28 c197 54 381 170 504
319 75 90 164 263 194 378 l22 85 0 2240 c0 2144 -1 2243 -18 2305 -53 188
-128 322 -251 449 -133 137 -307 232 -501 272 -88 18 -358 19 -9805 18 -9329
0 -9718 -1 -9800 -18z m15015 -2161 l205 0 0 -275 0 -275 -206 0 -206 0 4
-392 c3 -369 4 -395 23 -433 29 -59 72 -78 160 -71 39 3 100 14 136 24 l66 19
27 -255 c22 -199 25 -256 15 -262 -6 -5 -75 -18 -153 -31 -179 -30 -506 -33
-623 -7 -201 46 -320 167 -369 378 -15 64 -18 144 -21 553 l-4 477 -140 0
-139 0 0 275 0 275 140 0 140 0 2 181 3 181 365 187 365 188 3 -368 2 -369
205 0z m1335 -600 l0 -1340 -375 0 -375 0 0 1340 0 1340 375 0 375 0 0 -1340z
m-13875 616 c387 -102 626 -532 602 -1082 -13 -292 -89 -508 -235 -665 -98
-107 -219 -181 -359 -221 -113 -33 -333 -32 -447 0 -105 30 -219 90 -289 153
l-57 51 0 -466 0 -466 -375 0 -375 0 0 1340 0 1340 350 0 350 0 0 -138 0 -138
103 101 c82 82 117 109 177 138 69 33 152 59 225 71 58 9 270 -3 330 -18z
m2265 10 c77 -17 230 -74 230 -86 0 -9 -219 -522 -225 -529 -2 -1 -34 7 -72
20 -92 32 -201 32 -258 2 -80 -43 -136 -121 -170 -237 -41 -142 -47 -208 -52
-678 l-5 -458 -374 0 -374 0 0 970 0 970 350 0 350 0 0 -157 0 -158 29 53 c73
131 147 213 233 258 81 42 221 55 338 30z m1760 -15 c336 -68 567 -237 709
-518 104 -208 127 -521 56 -768 -97 -334 -363 -581 -717 -665 -305 -72 -670
-45 -911 68 -392 184 -606 571 -557 1010 15 140 43 241 95 347 146 297 440
495 810 544 111 15 404 5 515 -18z m2765 4 c133 -35 245 -117 321 -233 20 -31
39 -59 41 -61 2 -3 40 32 86 76 195 189 360 252 632 240 293 -13 481 -141 569
-387 52 -144 56 -206 56 -927 l0 -663 -375 0 -375 0 0 593 c0 676 2 656 -79
737 -138 138 -359 63 -428 -143 -15 -46 -17 -116 -21 -619 l-3 -568 -369 0
-368 0 -4 603 -3 602 -23 50 c-30 65 -56 93 -117 121 -122 58 -278 -2 -338
-129 -44 -92 -47 -140 -47 -709 l0 -538 -375 0 -375 0 0 970 0 970 350 0 350
0 0 -137 0 -138 88 85 c131 125 241 185 398 215 100 19 323 14 409 -10z m3690
1 c387 -102 626 -532 602 -1082 -13 -292 -89 -508 -235 -665 -98 -107 -219
-181 -359 -221 -113 -33 -333 -32 -447 0 -105 30 -219 90 -289 153 l-57 51 0
-466 0 -466 -375 0 -375 0 0 1340 0 1340 350 0 350 0 0 -138 0 -138 103 101
c82 82 117 109 177 138 69 33 152 59 225 71 58 9 270 -3 330 -18z m4710 -656
c110 -351 201 -637 203 -635 3 2 87 289 187 637 l182 633 366 3 c202 1 367 -1
367 -4 0 -13 -783 -2112 -822 -2204 -135 -318 -264 -436 -543 -496 -145 -32
-434 -26 -721 13 l-41 5 -28 249 c-15 137 -25 252 -22 255 3 3 27 -1 55 -9 78
-24 236 -40 324 -34 96 6 172 40 221 97 36 42 97 159 97 185 0 9 -180 444
-401 968 -221 524 -403 958 -406 965 -4 9 78 12 389 12 l395 0 198 -640z"/>
<path d="M22660 4351 c-101 -33 -185 -115 -220 -214 -28 -79 -39 -294 -20
-389 24 -127 96 -224 198 -271 67 -31 190 -31 249 1 90 47 144 124 169 241 16
77 18 275 4 351 -32 169 -143 279 -289 286 -36 2 -77 0 -91 -5z"/>
<path d="M26820 4397 c-61 -17 -109 -48 -158 -101 -87 -95 -116 -192 -116
-396 0 -216 34 -319 135 -416 71 -66 131 -89 234 -89 61 0 92 6 129 23 74 34
129 84 164 149 44 83 62 160 68 293 10 206 -32 353 -129 448 -29 28 -74 61
-102 73 -60 27 -162 34 -225 16z"/>
<path d="M33140 4351 c-101 -33 -185 -115 -220 -214 -28 -79 -39 -294 -20
-389 24 -127 96 -224 198 -271 67 -31 190 -31 249 1 90 47 144 124 169 241 16
77 18 275 4 351 -32 169 -143 279 -289 286 -36 2 -77 0 -91 -5z"/>
<path d="M1120 1180 l0 -230 3800 0 3800 0 0 230 0 230 -3800 0 -3800 0 0
-230z"/>
</g>
</svg>
