<?xml version="1.0" standalone="no"?>
<!DOCTYPE svg PUBLIC "-//W3C//DTD SVG 20010904//EN"
 "http://www.w3.org/TR/2001/REC-SVG-20010904/DTD/svg10.dtd">
<svg version="1.0" xmlns="http://www.w3.org/2000/svg"
 width="4229.000000pt" height="802.000000pt" viewBox="0 0 4229.000000 802.000000"
 preserveAspectRatio="xMidYMid meet">

<g transform="translate(0.000000,802.000000) scale(0.100000,-0.100000)"
fill="#000000" stroke="none">
<path d="M927 7983 c-427 -54 -775 -366 -890 -797 l-22 -81 0 -3095 0 -3095
28 -100 c112 -400 437 -701 834 -770 76 -13 2371 -15 20263 -15 18047 0 20187
2 20265 15 399 70 720 370 838 783 l22 77 3 3055 c2 2208 0 3077 -8 3135 -15
102 -60 239 -111 335 -154 286 -417 481 -734 544 -73 15 -1852 17 -20238 19
-15328 1 -20181 -1 -20250 -10z m40383 -204 c312 -38 569 -234 690 -525 64
-154 60 80 60 -3241 0 -3335 5 -3091 -61 -3248 -81 -196 -237 -358 -430 -449
-91 -43 -167 -64 -284 -76 -130 -14 -40159 -13 -40294 0 -215 22 -390 108
-537 261 -110 117 -178 241 -214 392 -20 84 -20 114 -18 3143 3 2901 4 3062
21 3119 100 336 381 581 718 624 99 13 40246 13 40349 0z"/>
<path d="M20757 7040 c-187 -32 -367 -122 -506 -254 -142 -136 -221 -271 -278
-476 -17 -62 -18 -175 -18 -2305 l0 -2240 22 -85 c31 -116 108 -270 180 -360
138 -174 313 -285 540 -343 l88 -22 9745 0 9745 0 100 28 c197 54 381 170 504
319 75 90 164 263 194 378 l22 85 0 2240 c0 2144 -1 2243 -18 2305 -53 188
-128 322 -251 449 -133 137 -307 232 -501 272 -88 18 -357 19 -9805 18 -5343
-1 -9737 -5 -9763 -9z m14978 -2170 l205 0 0 -275 0 -275 -206 0 -206 0 4
-392 c3 -369 4 -395 23 -433 29 -59 72 -78 160 -71 39 3 100 14 136 24 l66 19
27 -255 c22 -199 25 -256 15 -262 -6 -5 -75 -18 -153 -31 -181 -30 -506 -33
-624 -6 -202 47 -319 166 -368 377 -14 64 -18 146 -21 553 l-5 477 -139 0
-139 0 0 275 0 275 140 0 140 0 0 179 0 180 228 117 c125 64 290 149 367 189
l140 73 3 -369 2 -369 205 0z m1335 -600 l0 -1340 -375 0 -375 0 0 1340 0
1340 375 0 375 0 0 -1340z m-13875 616 c387 -102 626 -532 602 -1082 -13 -292
-89 -508 -235 -665 -98 -107 -219 -181 -359 -221 -113 -33 -333 -32 -447 0
-105 30 -219 90 -289 153 l-57 51 0 -466 0 -466 -375 0 -375 0 0 1340 0 1340
350 0 350 0 0 -138 0 -138 103 101 c82 82 117 109 177 138 69 33 152 59 225
71 58 9 270 -3 330 -18z m2265 10 c77 -17 230 -74 230 -86 0 -9 -219 -521
-225 -529 -2 -1 -34 7 -72 20 -92 32 -201 32 -258 2 -80 -43 -136 -121 -170
-237 -41 -142 -47 -208 -52 -678 l-5 -458 -374 0 -374 0 0 970 0 970 350 0
350 0 0 -157 0 -158 29 53 c73 131 147 213 233 258 81 42 221 55 338 30z
m1760 -15 c336 -68 567 -237 709 -518 133 -264 129 -658 -8 -931 -101 -202
-290 -372 -501 -455 -322 -125 -779 -114 -1073 26 -384 183 -596 571 -548
1002 28 252 111 433 274 598 159 161 374 262 632 296 111 15 404 5 515 -18z
m2765 4 c133 -35 245 -117 321 -233 20 -31 39 -59 41 -61 2 -3 40 32 86 76
195 189 360 252 632 240 354 -16 557 -201 611 -557 11 -75 14 -233 14 -757 l0
-663 -375 0 -375 0 0 593 c0 676 2 656 -79 737 -138 138 -359 63 -428 -143
-15 -46 -17 -116 -21 -619 l-3 -568 -369 0 -368 0 -4 603 -3 602 -24 53 c-68
151 -251 188 -386 78 -48 -40 -86 -111 -104 -194 -7 -35 -11 -236 -11 -597 l0
-545 -375 0 -375 0 0 970 0 970 350 0 350 0 0 -137 0 -138 88 85 c131 125 241
185 398 215 100 19 323 14 409 -10z m3690 1 c387 -102 626 -532 602 -1082 -13
-292 -89 -508 -235 -665 -98 -107 -219 -181 -359 -221 -113 -33 -333 -32 -447
0 -105 30 -219 90 -289 153 l-57 51 0 -466 0 -466 -375 0 -375 0 0 1340 0
1340 350 0 350 0 0 -138 0 -138 103 101 c82 82 117 109 177 138 69 33 152 59
225 71 58 9 270 -3 330 -18z m4624 -378 c252 -812 286 -917 289 -913 3 2 87
289 187 637 l182 633 366 3 c202 1 367 -1 367 -4 0 -4 -68 -189 -151 -413 -83
-223 -214 -575 -291 -781 -76 -206 -191 -514 -255 -685 -184 -495 -258 -624
-415 -726 -60 -38 -168 -78 -268 -99 -133 -28 -433 -20 -706 17 l-41 5 -28
249 c-15 137 -25 252 -22 255 3 3 27 -1 55 -9 78 -24 236 -40 324 -34 96 6
172 40 222 98 36 43 96 156 96 183 0 14 -69 184 -233 571 -49 116 -129 307
-292 695 -29 69 -103 244 -165 390 -62 146 -114 271 -117 278 -4 9 78 12 389
12 l395 0 112 -362z"/>
<path d="M22660 4351 c-101 -33 -185 -115 -220 -214 -28 -79 -39 -294 -20
-389 24 -127 96 -224 198 -271 67 -31 190 -31 249 1 88 46 141 120 168 234 17
73 20 279 5 358 -32 169 -143 279 -289 286 -36 2 -77 0 -91 -5z"/>
<path d="M26820 4397 c-61 -17 -109 -48 -158 -101 -88 -95 -116 -193 -116
-396 0 -216 34 -320 135 -416 71 -66 131 -89 234 -89 61 0 92 6 129 23 74 34
129 84 164 149 44 83 62 160 68 293 10 206 -32 353 -129 448 -29 28 -74 61
-102 73 -60 27 -162 34 -225 16z"/>
<path d="M33140 4351 c-101 -33 -185 -115 -220 -214 -28 -79 -39 -294 -20
-389 24 -127 96 -224 198 -271 67 -31 190 -31 249 1 88 46 141 120 168 234 17
73 20 279 5 358 -32 169 -143 279 -289 286 -36 2 -77 0 -91 -5z"/>
<path d="M1120 1180 l0 -230 3800 0 3800 0 0 230 0 230 -3800 0 -3800 0 0
-230z"/>
</g>
</svg>
