<svg width="227" height="51" viewBox="0 0 227 51" fill="none" xmlns="http://www.w3.org/2000/svg">
<g clip-path="url(#clip0_362_89)">
<path d="M25.1882 50.3765C39.0993 50.3765 50.3765 39.0993 50.3765 25.1882C50.3765 11.2772 39.0993 0 25.1882 0C11.2772 0 0 11.2772 0 25.1882C0 39.0993 11.2772 50.3765 25.1882 50.3765Z" fill="#1AA4FF"/>
<path d="M25.1882 24.8505C26.3053 24.8505 27.3826 24.4355 28.2124 23.6855L32.8325 19.3553H30.6169L27.0953 22.6269C26.5713 23.1057 25.8878 23.3716 25.1802 23.3716C24.4727 23.3716 23.7865 23.1057 23.2652 22.6269L19.7649 19.3553H17.5493L22.1694 23.6855C22.9992 24.4355 24.0764 24.8505 25.1935 24.8505H25.1882ZM14.7805 13.7033C14.2113 13.9373 13.6953 14.2831 13.2617 14.7167C12.8282 15.1502 12.4824 15.6689 12.2483 16.2354C12.0143 16.8046 11.8919 17.4137 11.8919 18.0281V21.4247C11.8919 22.1428 11.618 22.837 11.1259 23.361C10.6338 23.885 9.95826 24.1988 9.24011 24.2414L9.28267 24.9861L9.24011 25.7309C9.95826 25.7734 10.6338 26.0873 11.1259 26.6113C11.618 27.1352 11.8919 27.8268 11.8919 28.5476V32.4628C11.8919 33.7608 12.4026 35.0082 13.3202 35.9285C14.2379 36.8488 15.4826 37.3675 16.7806 37.3701V35.878C15.879 35.878 15.0172 35.5189 14.3788 34.8832C13.7431 34.2475 13.3841 33.3831 13.3841 32.4814V28.5449C13.3841 27.8427 13.2138 27.1512 12.884 26.5288C12.5542 25.9091 12.0808 25.3771 11.4983 24.9808C12.0781 24.5845 12.5516 24.0525 12.8814 23.4328C13.2085 22.8131 13.3814 22.1215 13.3841 21.4193V18.0228C13.3867 17.177 13.7245 16.3684 14.323 15.7726C14.9214 15.1741 15.73 14.839 16.5732 14.8337H17.153V13.3416H16.5732C15.9587 13.3416 15.3497 13.4612 14.7805 13.698V13.7033ZM25.1882 25.8373C24.0685 25.8373 22.9886 26.2575 22.164 27.0182L17.5254 31.367H19.741L23.2838 28.0529C23.8078 27.5741 24.4914 27.3081 25.1989 27.3081C25.9064 27.3081 26.5926 27.5741 27.1139 28.0529L30.6355 31.367H32.8511L28.2124 27.0182C27.3879 26.2602 26.308 25.8373 25.1882 25.8373ZM41.1177 24.2414C40.3996 24.1988 39.724 23.885 39.2319 23.361C38.7399 22.837 38.4659 22.1455 38.4659 21.4247V18.0281C38.4659 16.7886 37.9792 15.5997 37.1041 14.722C36.229 13.8443 35.0428 13.3495 33.806 13.3469H33.2261V14.839H33.806C34.2235 14.839 34.6385 14.9215 35.0241 15.0837C35.4098 15.2433 35.7609 15.48 36.0535 15.7753C36.3487 16.0705 36.5801 16.4243 36.7397 16.8099C36.8966 17.1956 36.9791 17.6105 36.9764 18.0281V21.4247C36.9764 22.1268 37.152 22.8184 37.4791 23.4381C37.8063 24.0579 38.2824 24.5898 38.8622 24.9861C38.2797 25.3798 37.8063 25.9117 37.4765 26.5341C37.1467 27.1539 36.9764 27.8481 36.9764 28.5502V32.4867C36.9764 33.3884 36.6174 34.2502 35.9817 34.8885C35.346 35.5242 34.4815 35.8833 33.5799 35.8833V37.3754C34.8779 37.3728 36.1226 36.8541 37.0403 35.9338C37.9579 35.0135 38.4712 33.7661 38.4686 32.4681V28.5529C38.4686 27.8348 38.7425 27.1406 39.2346 26.6166C39.7267 26.0926 40.4022 25.7787 41.1204 25.7362L41.0778 24.9914L41.1204 24.2467L41.1177 24.2414Z" fill="#F5F4E7"/>
<path d="M56.0365 24.4329C56.0365 17.286 60.7576 12.634 67.8699 12.634C74.3332 12.634 78.8495 16.0545 78.8495 21.5257V22.0045H74.7801V21.5257C74.7801 18.0361 72.5565 16.1556 67.9045 16.1556C62.5344 16.1556 59.9358 18.7196 59.9358 24.4329C59.9358 30.1461 62.5344 32.6756 67.9045 32.6756C72.5565 32.6756 74.7801 30.8297 74.7801 27.3055V26.8613H78.8495V27.3055C78.8495 32.8112 74.3705 36.2317 67.8699 36.2317C60.755 36.2317 56.0365 31.5797 56.0365 24.4329Z" fill="#F5F4E7"/>
<path d="M80.8311 25.2043C80.8311 19.9033 84.6266 16.3472 90.2707 16.3472C95.9147 16.3472 99.7448 19.9033 99.7448 25.2043C99.7448 30.5052 95.9493 34.0268 90.2707 34.0268C84.592 34.0268 80.8311 30.4361 80.8311 25.2043ZM96.1195 25.2043C96.1195 21.579 94.4093 19.5948 90.2707 19.5948C86.132 19.5948 84.4564 21.579 84.4564 25.2043C84.4564 28.8296 86.1666 30.7446 90.2707 30.7446C94.3747 30.7446 96.1195 28.795 96.1195 25.2043Z" fill="#F5F4E7"/>
<path d="M102.41 33.6864V16.6876H105.796V21.8184H106.001C106.445 18.9804 108.293 16.3472 112.533 16.3472C116.398 16.3472 118.483 18.7064 118.962 21.9567H119.167C119.611 19.0495 121.526 16.3472 125.835 16.3472C130.144 16.3472 132.471 19.3581 132.471 23.4621V33.689H128.811V24.4542C128.811 21.1029 127.479 19.6666 124.194 19.6666C120.568 19.6666 119.268 21.5125 119.268 25.2761V33.689H115.608V24.4542C115.608 21.1029 114.307 19.6666 111.025 19.6666C107.365 19.6666 106.099 21.5125 106.099 25.2761V33.689H102.405L102.41 33.6864Z" fill="#F5F4E7"/>
<path d="M135.79 33.6864V16.6876H139.176V21.8184H139.381C139.825 18.9804 141.674 16.3472 145.914 16.3472C149.778 16.3472 151.863 18.7064 152.342 21.9567H152.547C152.991 19.0495 154.906 16.3472 159.215 16.3472C163.524 16.3472 165.851 19.3581 165.851 23.4621V33.689H162.191V24.4542C162.191 21.1029 160.859 19.6666 157.574 19.6666C153.949 19.6666 152.648 21.5125 152.648 25.2761V33.689H148.988V24.4542C148.988 21.1029 147.688 19.6666 144.405 19.6666C140.746 19.6666 139.479 21.5125 139.479 25.2761V33.689H135.785L135.79 33.6864Z" fill="#F5F4E7"/>
<path d="M168.415 25.2043C168.415 19.9033 172.211 16.3472 177.855 16.3472C183.499 16.3472 187.329 19.9033 187.329 25.2043C187.329 30.5052 183.534 34.0268 177.855 34.0268C172.176 34.0268 168.415 30.4361 168.415 25.2043ZM183.704 25.2043C183.704 21.579 181.994 19.5948 177.855 19.5948C173.716 19.5948 172.041 21.579 172.041 25.2043C172.041 28.8296 173.751 30.7446 177.855 30.7446C181.959 30.7446 183.704 28.795 183.704 25.2043Z" fill="#F5F4E7"/>
<path d="M189.997 33.6863V16.6876H193.383V21.954H193.622C194.136 19.0814 196.394 16.3445 200.703 16.3445C205.424 16.3445 207.748 19.5256 207.748 23.4594V33.6863H204.054V24.4515C204.054 21.2704 202.618 19.6639 199.093 19.6639C195.364 19.6639 193.689 21.579 193.689 25.2734V33.6863H189.994H189.997Z" fill="#F5F4E7"/>
<path d="M210.48 27.9412V27.8375H214.174V28.1114C214.174 30.335 215.51 31.0532 219.066 31.0532C222.383 31.0532 223.375 30.3696 223.375 28.8642C223.375 27.4624 222.553 27.0183 220.124 26.6751L215.472 26.0607C212.257 25.6511 210.307 24.2813 210.307 21.4433C210.307 18.6053 213.009 16.3472 218.241 16.3472C223.473 16.3472 226.588 18.4324 226.588 22.47V22.5737H222.928V22.3689C222.928 20.3502 221.901 19.2916 218.14 19.2916C215.028 19.2916 213.932 19.9751 213.932 21.5843C213.932 22.9195 214.616 23.3983 217.183 23.7387L221.117 24.2866C225.151 24.8 227 26.1671 227 28.9732C227 32.1543 223.853 34.0348 219.066 34.0348C213.595 34.0348 210.483 31.8804 210.483 27.9465L210.48 27.9412Z" fill="#F5F4E7"/>
</g>
<defs>
<clipPath id="clip0_362_89">
<rect width="227" height="50.3738" fill="white"/>
</clipPath>
</defs>
</svg>
